ffmpeg version 6.1.1-3ubuntu5 Copyright (c) 2000-2023 the FFmpeg developers
  built with gcc 13 (Ubuntu 13.2.0-23ubuntu3)
  configuration: --prefix=/usr --extra-version=3ubuntu5 --toolchain=hardened --libdir=/usr/lib/x86_64-linux-gnu --incdir=/usr/include/x86_64-linux-gnu --arch=amd64 --enable-gpl --disable-stripping --disable-omx --enable-gnutls --enable-libaom --enable-libass --enable-libbs2b --enable-libcaca --enable-libcdio --enable-libcodec2 --enable-libdav1d --enable-libflite --enable-libfontconfig --enable-libfreetype --enable-libfribidi --enable-libglslang --enable-libgme --enable-libgsm --enable-libharfbuzz --enable-libmp3lame --enable-libmysofa --enable-libopenjpeg --enable-libopenmpt --enable-libopus --enable-librubberband --enable-libshine --enable-libsnappy --enable-libsoxr --enable-libspeex --enable-libtheora --enable-libtwolame --enable-libvidstab --enable-libvorbis --enable-libvpx --enable-libwebp --enable-libx265 --enable-libxml2 --enable-libxvid --enable-libzimg --enable-openal --enable-opencl --enable-opengl --disable-sndio --enable-libvpl --disable-libmfx --enable-libdc1394 --enable-libdrm --enable-libiec61883 --enable-chromaprint --enable-frei0r --enable-ladspa --enable-libbluray --enable-libjack --enable-libpulse --enable-librabbitmq --enable-librist --enable-libsrt --enable-libssh --enable-libsvtav1 --enable-libx264 --enable-libzmq --enable-libzvbi --enable-lv2 --enable-sdl2 --enable-libplacebo --enable-librav1e --enable-pocketsphinx --enable-librsvg --enable-libjxl --enable-shared
  libavutil      58. 29.100 / 58. 29.100
  libavcodec     60. 31.102 / 60. 31.102
  libavformat    60. 16.100 / 60. 16.100
  libavdevice    60.  3.100 / 60.  3.100
  libavfilter     9. 12.100 /  9. 12.100
  libswscale      7.  5.100 /  7.  5.100
  libswresample   4. 12.100 /  4. 12.100
  libpostproc    57.  3.100 / 57.  3.100
[video4linux2,v4l2 @ 0x5d501fe7c040] The driver changed the time per frame from 1/15 to 1/30
Input #0, video4linux2,v4l2, from '/dev/video0':
  Duration: N/A, start: 3325.739296, bitrate: 36864 kb/s
  Stream #0:0: Video: rawvideo (YUY2 / 0x32595559), yuyv422, 320x240, 36864 kb/s, 30 fps, 30 tbr, 1000k tbn
Stream mapping:
  Stream #0:0 -> #0:0 (rawvideo (native) -> h264 (libx264))
Press [q] to stop, [?] for help
[libx264 @ 0x5d501fe7f180] using cpu capabilities: MMX2 SSE2Fast SSSE3 SSE4.2 AVX FMA3 BMI2 AVX2
[libx264 @ 0x5d501fe7f180] profile Constrained Baseline, level 3.0, 4:2:0, 8-bit
Output #0, h264, to 'pipe:':
  Metadata:
    encoder         : Lavf60.16.100
  Stream #0:0: Video: h264, yuv420p(tv, progressive), 320x240, q=2-31, 30 fps, 30 tbn
    Metadata:
      encoder         : Lavc60.31.102 libx264
    Side data:
      cpb: bitrate max/min/avg: 0/0/0 buffer size: 0 vbv_delay: N/A
frame=    0 fps=0.0 q=20.0 size=       0kB time=00:00:00.00 bitrate=N/A speed=   0x    frame=   18 fps=0.0 q=23.0 size=      56kB time=00:00:00.60 bitrate= 764.7kbits/s dup=2 drop=0 speed= 1.2x    frame=   34 fps= 33 q=23.0 size=     110kB time=00:00:01.13 bitrate= 792.3kbits/s dup=2 drop=0 speed=1.11x    [vost#0:0/libx264 @ 0x5d501fe7edc0] Error submitting a packet to the muxer: Broken pipe
[out#0/h264 @ 0x5d501fe7dac0] Error muxing a packet
[out#0/h264 @ 0x5d501fe7dac0] Error writing trailer: Broken pipe
[out#0/h264 @ 0x5d501fe7dac0] Error closing file: Broken pipe
[out#0/h264 @ 0x5d501fe7dac0] video:131kB audio:0kB subtitle:0kB other streams:0kB global headers:0kB muxing overhead: unknown
frame=   40 fps= 32 q=23.0 Lsize=     128kB time=00:00:01.33 bitrate= 788.9kbits/s dup=2 drop=0 speed=1.05x    
[libx264 @ 0x5d501fe7f180] frame I:1     Avg QP:20.00  size: 11919
[libx264 @ 0x5d501fe7f180] frame P:40    Avg QP:23.40  size:  3146
[libx264 @ 0x5d501fe7f180] mb I  I16..4: 100.0%  0.0%  0.0%
[libx264 @ 0x5d501fe7f180] mb P  I16..4:  8.4%  0.0%  0.0%  P16..4: 66.5%  0.0%  0.0%  0.0%  0.0%    skip:25.1%
[libx264 @ 0x5d501fe7f180] coded y,uvDC,uvAC intra: 34.9% 33.3% 15.5% inter: 43.8% 21.0% 0.9%
[libx264 @ 0x5d501fe7f180] i16 v,h,dc,p: 31% 31% 17% 22%
[libx264 @ 0x5d501fe7f180] i8c dc,h,v,p: 58% 22% 15%  4%
[libx264 @ 0x5d501fe7f180] kb/s:806.48
Conversion failed!
